<svg id="Capa_1" data-name="Capa 1" xmlns="http://www.w3.org/2000/svg" viewBox="-10 30 160 220"><defs><style>.cls-1{fill:#fff;}.cls-2{font-size:117px;font-family:BrushScriptMT, Brush Script MT;}.cls-3{fill:none;stroke:#fff;stroke-miterlimit:10;}</style></defs><rect class="cls-1" x="3" y="46.73" width="140" height="141" rx="29"/><text x="-9" y="37.73"/><text class="cls-2" transform="translate(16.25 138.09) scale(0.99 1)">JB</text><rect class="cls-3" x="0.5" y="43.73" width="145" height="146" rx="29"/><path class="cls-1" d="M38.52,161.72c10.8,0,20.47,6.8,20.47,17.14C59,190,49.77,197,38.14,197c-12.14,0-21-7.58-21-17.34C17.15,170.34,25.18,161.72,38.52,161.72Zm-1.27,1.92c-7.08,0-13.52,4.88-13.52,14.6S30.17,195,39.15,195c7.65,0,13.4-4.68,13.4-14.7C52.55,169.41,45.53,163.64,37.25,163.64Z" transform="translate(-9 37.73)"/><path class="cls-1" d="M108.8,163.9c-4,.37-5.37.89-5.56,3.27-.06,1.67-.19,3.85-.19,8.68v20.82h-2.4L73.6,169.51v13c0,4.68.19,7,.31,8.52.13,2.65,1.71,3.43,6.26,3.74v1.45H64.81v-1.45c3.92-.26,5.44-1,5.69-3.59a78.17,78.17,0,0,0,.32-8.72V169.2a4,4,0,0,0-1.27-3.43c-1.2-1.3-2.52-1.61-5.62-1.87v-1.45h9.48l26.8,26.12V175.85a73.24,73.24,0,0,0-.32-8.62c-.19-2.34-1.64-3.07-6.7-3.33v-1.45H108.8Z" transform="translate(-9 37.73)"/><path class="cls-1" d="M146.66,188c-.38,1.34-2.08,6.69-2.71,8.25H113.23v-1.45c5.88-.37,6.32-.83,6.32-5.09V169.15c0-4.62-.7-4.88-5.44-5.25v-1.45h19.34c6,0,8.41,0,9.17-.1.06,1.29.32,5.19.57,7.94l-1.9.26a15.84,15.84,0,0,0-1.89-4c-1-1.71-2.47-2.07-6.26-2.07h-6c-1.95,0-2.08.15-2.08,1.66v11.47h7c4.74,0,5.06-.78,5.82-4.31h2v10.7h-2c-.82-3.74-1.33-4.26-5.88-4.26h-7v10.34c0,3.63,1.39,3.94,4.55,4h5.88c3.85,0,4.48-.46,5.87-1.81a21.66,21.66,0,0,0,3.42-4.78Z" transform="translate(-9 37.73)"/><rect x="286" y="277.73" width="1" height="1"/></svg>