<svg id="Capa_1" data-name="Capa 1" xmlns="http://www.w3.org/2000/svg" viewBox="0 0 1524.49 1525.39"><defs><style>.cls-1,.cls-19,.cls-2,.cls-20,.cls-21,.cls-3,.cls-4,.cls-5,.cls-6{fill:none;}.cls-1,.cls-10,.cls-19,.cls-2,.cls-20,.cls-21,.cls-3,.cls-4,.cls-5,.cls-6,.cls-7,.cls-8,.cls-9{stroke:#1b1464;}.cls-1,.cls-10,.cls-16,.cls-19,.cls-2,.cls-20,.cls-21,.cls-3,.cls-4,.cls-5,.cls-6,.cls-7,.cls-8,.cls-9{stroke-miterlimit:10;}.cls-1,.cls-10,.cls-16{stroke-width:4px;}.cls-2,.cls-5,.cls-7{stroke-width:8px;}.cls-3,.cls-4,.cls-5{stroke-linecap:square;}.cls-3,.cls-8{stroke-width:7px;}.cls-21,.cls-4,.cls-6,.cls-9{stroke-width:5px;}.cls-10,.cls-7,.cls-8,.cls-9{fill:#fff;}.cls-11{font-size:335.65px;font-family:Impact;letter-spacing:0.06em;}.cls-11,.cls-12,.cls-16,.cls-17{fill:#1b1464;}.cls-12{font-size:78.49px;font-family:MyriadPro-Regular, Myriad Pro;letter-spacing:0.06em;}.cls-13{letter-spacing:0.02em;}.cls-14{letter-spacing:0.07em;}.cls-15{letter-spacing:0.06em;}.cls-16{stroke:red;}.cls-17,.cls-18,.cls-21{fill-rule:evenodd;}.cls-18{fill:red;}.cls-20{stroke-linecap:round;stroke-width:25px;}.cls-22{fill:#ccc;stroke:#000;stroke-linejoin:round;}</style></defs><polygon class="cls-1" points="682.94 1518.69 2.74 737.14 747.71 2.92 1427.9 784.47 682.94 1518.69"/><polygon class="cls-1" points="776.77 1522.47 96.58 740.92 841.55 6.69 1521.74 788.25 776.77 1522.47"/><line class="cls-2" x1="775.75" y1="1505.99" x2="1502.5" y2="788.37"/><line class="cls-3" x1="768.06" y1="1493.08" x2="1482.21" y2="787.8"/><line class="cls-4" x1="758.02" y1="1482.87" x2="1462.88" y2="784.52"/><line class="cls-1" x1="749.37" y1="1472.83" x2="1446.54" y2="782.54"/><line class="cls-5" x1="840.54" y1="28.39" x2="1503.78" y2="787.09"/><line class="cls-3" x1="1481.41" y1="785.73" x2="827.57" y2="39.02"/><line class="cls-6" x1="817.59" y1="46.66" x2="1463.82" y2="787.5"/><line class="cls-1" x1="1444.57" y1="784.93" x2="809.99" y2="54.82"/><line class="cls-7" x1="26.22" y1="735.03" x2="758.9" y2="17.1"/><line class="cls-8" x1="45.59" y1="741.09" x2="768.71" y2="31.48"/><line class="cls-7" x1="20.08" y1="734.51" x2="689.8" y2="1504.72"/><line class="cls-8" x1="702.82" y1="1492.35" x2="47.76" y2="739.75"/><line class="cls-9" x1="70.57" y1="740.51" x2="780.31" y2="41.66"/><line class="cls-9" x1="713.14" y1="1480.64" x2="68.19" y2="739.16"/><line class="cls-10" x1="86.92" y1="741.94" x2="787.55" y2="52.79"/><line class="cls-10" x1="720.38" y1="1470.81" x2="86.54" y2="738.6"/><text class="cls-11" transform="matrix(0.64, 0, 0, 1, 262.73, 868.01)"><tspan xml:space="preserve">S    FCLICK</tspan></text><text class="cls-12" transform="matrix(1.11, 0, 0, 1, 367.72, 987.92)">DISEÑO<tspan class="cls-13" x="283.73" y="0"> </tspan><tspan x="301.7" y="0">Y A</tspan><tspan class="cls-14" x="423.67" y="0">R</tspan><tspan class="cls-15" x="471.54" y="0">TE J B </tspan></text><line class="cls-16" x1="292.99" y1="885.52" x2="1262.35" y2="894.25"/><path class="cls-17" d="M538.67,740.24a114.65,114.65,0,0,1-.71,12.27c-3,30.68-14.53,53.8-37.17,49.49s-30.36-31.11-27.32-61.79c.38-4,.82-6.52,1.45-10.2,11.8-1.46,24.39-2.45,34.93-.67A79.54,79.54,0,0,1,538.67,740.24Z" transform="translate(-6.26 -6.31)"/><path class="cls-18" d="M514,687.45h0c-5.65-4.47,11.88,8.31,16.62,13.89,4.13,4.84,8.54,13.24,8.85,28.66-7.31-4.55-19.71-6.8-27.08-8Z" transform="translate(-6.26 -6.31)"/><path class="cls-19" d="M514,687.45h0c-5.65-4.47,11.88,8.31,16.62,13.89,4.13,4.84,8.54,13.24,8.85,28.66-7.31-4.55-19.71-6.8-27.08-8Z" transform="translate(-6.26 -6.31)"/><path class="cls-17" d="M503.3,720.56c-7.43-1.49-20.55-1.89-28.28-.48,1.5-10.4,9.54-36.72,30.19-34.2Z" transform="translate(-6.26 -6.31)"/><path class="cls-19" d="M503.3,720.56c-7.43-1.49-20.55-1.89-28.28-.48,1.5-10.4,9.54-36.72,30.19-34.2Z" transform="translate(-6.26 -6.31)"/><ellipse class="cls-20" cx="506.34" cy="741.29" rx="129.29" ry="80.66" transform="translate(-242.63 1239.24) rotate(-89.84)"/><path class="cls-21" d="M526.55,612.51c-15.32,2.77-23.09,8.35-26.77,14.63-5.66,9.69,23.61,17.12,24.24,21.06,3.86,24.12-28.8,3.37-12.66,31.08" transform="translate(-6.26 -6.31)"/><path class="cls-22" d="M1069.5,783.5" transform="translate(-6.26 -6.31)"/></svg>